<svg xmlns="http://www.w3.org/2000/svg" xmlns:xlink="http://www.w3.org/1999/xlink" width="500" zoomAndPan="magnify" viewBox="0 0 375 374.999991" height="500" preserveAspectRatio="xMidYMid meet" version="1.0"><defs><g/></defs><g fill="#000000" fill-opacity="1"><g transform="translate(98.543138, 223.725355)"><g><path d="M 73.976562 -27.710938 C 77.351562 -25.785156 82.652344 -27.46875 85.785156 -29.636719 C 91.324219 -33.492188 96.625 -37.589844 102.410156 -41.6875 C 111.324219 -47.710938 135.421875 -64.820312 136.625 -65.785156 C 140 -68.433594 142.410156 -73.976562 138.796875 -75.902344 C 137.832031 -76.625 135.179688 -74.699219 133.496094 -73.734375 C 132.53125 -73.253906 109.640625 -57.832031 98.554688 -50.84375 C 97.351562 -50.84375 94.941406 -48.675781 93.976562 -48.191406 L 89.640625 -45.785156 C 86.507812 -43.855469 83.375 -41.445312 80.242188 -39.277344 C 83.855469 -47.230469 88.914062 -53.734375 93.734375 -60.964844 C 99.277344 -69.15625 104.097656 -77.589844 108.914062 -86.023438 C 109.398438 -86.988281 109.398438 -88.675781 108.914062 -89.398438 C 107.710938 -91.085938 106.023438 -92.53125 104.335938 -93.734375 C 102.652344 -95.179688 100.722656 -94.941406 99.035156 -93.734375 L 77.589844 -77.351562 C 72.046875 -73.011719 66.746094 -68.191406 61.203125 -63.613281 C 61.203125 -63.613281 60.722656 -63.375 60.480469 -63.613281 C 60.242188 -63.855469 60 -64.578125 60 -64.820312 C 60.480469 -66.023438 61.203125 -67.230469 61.6875 -68.433594 C 64.335938 -73.976562 66.988281 -79.519531 69.398438 -85.058594 C 69.878906 -86.507812 70.363281 -88.914062 69.878906 -89.398438 C 67.46875 -91.566406 65.058594 -93.734375 62.167969 -94.941406 C 59.757812 -96.144531 58.796875 -93.253906 57.109375 -92.046875 L 46.265625 -84.097656 C 43.613281 -82.167969 40.722656 -80.480469 38.554688 -78.3125 C 34.21875 -73.734375 28.433594 -70.84375 24.097656 -66.507812 C 23.375 -65.785156 22.167969 -65.300781 21.203125 -64.820312 C 20.964844 -64.578125 20.242188 -64.820312 20 -65.058594 C 19.757812 -65.300781 19.519531 -66.023438 19.757812 -66.507812 C 20.722656 -68.433594 21.929688 -70.121094 22.890625 -72.046875 C 24.097656 -73.976562 33.011719 -90.601562 33.976562 -92.769531 C 35.664062 -96.386719 32.53125 -100 28.433594 -100.242188 C 26.265625 -100.242188 25.300781 -97.589844 24.335938 -95.902344 L 12.53125 -74.699219 C 7.230469 -65.300781 1.445312 -55.902344 -3.613281 -46.265625 L -7.230469 -39.757812 C -7.710938 -38.3125 -8.675781 -36.867188 -8.914062 -35.179688 C -9.636719 -31.808594 -8.191406 -29.398438 -4.578125 -27.710938 C -2.410156 -26.746094 -0.722656 -27.230469 1.6875 -29.878906 L 2.652344 -31.085938 C 10.121094 -40.964844 20.242188 -48.433594 28.914062 -57.347656 C 32.53125 -61.203125 36.625 -64.578125 40.964844 -67.46875 C 43.613281 -69.398438 45.300781 -73.011719 49.640625 -72.046875 C 48.191406 -69.640625 46.988281 -66.988281 45.785156 -64.578125 C 44.578125 -62.410156 43.132812 -60.480469 41.929688 -58.554688 C 38.796875 -53.011719 35.664062 -47.46875 32.769531 -41.929688 C 31.808594 -40.242188 31.324219 -38.554688 30.84375 -36.625 C 30.363281 -33.492188 32.289062 -30.121094 35.664062 -28.191406 C 38.3125 -26.746094 39.757812 -28.675781 41.203125 -30.121094 C 48.914062 -37.109375 56.625 -44.335938 64.335938 -51.566406 L 80.480469 -66.988281 C 80.964844 -67.46875 81.6875 -67.953125 82.410156 -68.191406 C 82.890625 -68.433594 83.613281 -68.191406 83.855469 -67.953125 C 84.097656 -67.710938 84.097656 -66.988281 84.097656 -66.746094 C 83.613281 -65.785156 83.132812 -64.578125 82.652344 -63.855469 C 77.832031 -57.832031 76.144531 -50.601562 73.253906 -43.855469 C 72.046875 -40.964844 71.566406 -37.589844 71.324219 -34.457031 C 70.84375 -31.808594 71.566406 -29.15625 73.976562 -27.710938 Z M 73.976562 -27.710938 "/></g></g></g><g fill="#000000" fill-opacity="1"><g transform="translate(220.711995, 223.725355)"><g><path d="M -26.746094 41.6875 C -24.335938 45.300781 -19.757812 44.820312 -18.074219 40.722656 C -17.347656 38.796875 -16.867188 36.625 -16.625 34.699219 C -11.566406 1.445312 -9.636719 -12.769531 9.878906 -11.566406 C 11.808594 -11.324219 14.21875 -10.84375 16.625 -10.601562 C 17.832031 -10.601562 19.757812 -11.324219 20 -12.046875 C 20.242188 -13.253906 19.757812 -14.941406 19.519531 -16.386719 C 19.277344 -17.109375 18.3125 -17.589844 17.832031 -18.074219 C 14.457031 -21.6875 10.363281 -23.613281 5.300781 -24.097656 C 0.722656 -24.335938 0.480469 -25.058594 1.925781 -29.636719 C 2.167969 -30.601562 2.410156 -31.566406 2.890625 -32.53125 C 8.914062 -45.300781 14.699219 -58.074219 21.203125 -70.363281 C 28.675781 -84.820312 38.554688 -97.589844 48.433594 -110.363281 C 56.386719 -120.722656 65.300781 -130.121094 75.421875 -138.3125 C 80.242188 -142.410156 84.578125 -147.230469 91.566406 -147.953125 C 92.289062 -147.953125 93.496094 -149.640625 93.976562 -150.601562 C 94.699219 -154.21875 93.976562 -157.589844 90.84375 -159.757812 C 87.953125 -161.929688 85.300781 -160.964844 82.652344 -159.277344 C 80.480469 -157.832031 78.3125 -156.628906 76.144531 -154.941406 C 73.253906 -152.53125 70.601562 -149.878906 67.710938 -147.710938 C 61.445312 -142.890625 56.144531 -136.867188 51.085938 -130.84375 C 43.855469 -122.652344 37.832031 -113.011719 30.84375 -104.578125 C 25.300781 -97.589844 20.964844 -89.878906 16.625 -82.167969 C 12.046875 -73.976562 7.46875 -65.542969 3.132812 -57.109375 C -1.445312 -48.433594 -6.988281 -39.035156 -9.398438 -29.15625 C -10.601562 -24.097656 -13.734375 -21.6875 -18.3125 -20.480469 C -20 -20 -21.445312 -19.757812 -23.132812 -19.519531 C -26.023438 -18.796875 -27.46875 -15.902344 -26.023438 -13.492188 C -24.820312 -11.085938 -23.375 -8.675781 -21.203125 -7.230469 C -18.796875 -5.300781 -18.074219 -3.375 -19.035156 -0.480469 C -19.757812 1.445312 -20.242188 3.613281 -20.722656 5.542969 C -23.375 15.179688 -25.785156 23.375 -28.675781 33.011719 C -29.878906 36.625 -28.675781 39.035156 -26.746094 41.6875 Z M -26.746094 41.6875 "/></g></g></g><g fill="#000000" fill-opacity="1"><g transform="translate(254.687944, 223.725355)"><g><path d="M 11.808594 -28.191406 C 14.699219 -30.601562 16.144531 -33.011719 15.421875 -37.109375 C 13.011719 -44.097656 0.722656 -48.433594 0 -38.554688 C 0 -35.902344 0.722656 -33.011719 2.652344 -31.324219 C 6.265625 -27.710938 9.15625 -26.023438 11.808594 -28.191406 Z M 11.808594 -28.191406 "/></g></g></g><g fill="#000000" fill-opacity="1"><g transform="translate(0.164241, 247.019071)"><g><path d="M 4.363281 0 L 4.363281 -5.667969 L 10.628906 -5.667969 L 10.628906 -7.898438 L 4.363281 -7.898438 L 4.363281 -12.070312 L 11.613281 -12.070312 L 11.613281 -14.4375 L 1.71875 -14.4375 L 1.71875 0 Z M 4.363281 0 "/></g></g></g><g fill="#000000" fill-opacity="1"><g transform="translate(29.780614, 247.019071)"><g><path d="M 4.363281 0 L 4.363281 -5.117188 L 6.835938 -5.117188 C 7.027344 -5.117188 7.207031 -5.117188 7.398438 -5.128906 L 10.257812 0 L 13.292969 0 L 10.023438 -5.53125 C 11.796875 -6.148438 12.964844 -7.695312 12.964844 -9.734375 C 12.964844 -12.550781 10.871094 -14.4375 7.953125 -14.4375 L 1.71875 -14.4375 L 1.71875 0 Z M 4.363281 -12.082031 L 7.847656 -12.082031 C 9.246094 -12.082031 10.320312 -11.050781 10.320312 -9.734375 C 10.320312 -8.324219 9.257812 -7.359375 7.855469 -7.347656 L 4.363281 -7.347656 Z M 4.363281 -12.082031 "/></g></g></g><g fill="#000000" fill-opacity="1"><g transform="translate(60.914048, 247.019071)"><g><path d="M 7.632812 0.320312 C 11.296875 0.320312 13.800781 -2.132812 13.800781 -5.585938 L 13.800781 -14.4375 L 11.160156 -14.4375 L 11.160156 -5.765625 C 11.160156 -3.714844 9.851562 -2.101562 7.632812 -2.101562 C 5.351562 -2.101562 4.097656 -3.738281 4.097656 -5.777344 L 4.097656 -14.4375 L 1.464844 -14.4375 L 1.464844 -5.585938 C 1.464844 -1.976562 4.152344 0.320312 7.632812 0.320312 Z M 7.632812 0.320312 "/></g></g></g><g fill="#000000" fill-opacity="1"><g transform="translate(93.553933, 247.019071)"><g><path d="M 8.324219 0.308594 C 13.046875 0.308594 15.765625 -3.035156 15.734375 -7.773438 L 8.195312 -7.773438 L 8.195312 -5.5625 L 12.867188 -5.5625 C 12.464844 -3.546875 10.882812 -2.125 8.300781 -2.125 C 5.574219 -2.125 3.34375 -4.097656 3.34375 -7.230469 C 3.34375 -10.308594 5.574219 -12.359375 8.300781 -12.359375 C 10.351562 -12.359375 11.964844 -11.359375 12.71875 -9.671875 L 15.40625 -9.671875 C 14.726562 -12.921875 11.421875 -14.777344 8.367188 -14.777344 C 4.121094 -14.777344 0.710938 -11.433594 0.710938 -7.230469 C 0.710938 -3.058594 4.121094 0.308594 8.324219 0.308594 Z M 8.324219 0.308594 "/></g></g></g><g fill="#000000" fill-opacity="1"><g transform="translate(127.382006, 247.019071)"><g><path d="M 14.621094 0 L 8.609375 -14.449219 L 6.105469 -14.449219 L 0.09375 0 L 2.886719 0 L 4.035156 -2.792969 L 10.679688 -2.792969 L 11.828125 0 Z M 7.261719 -10.691406 L 7.347656 -11.042969 L 7.378906 -11.042969 L 7.441406 -10.691406 L 9.777344 -5 L 4.9375 -5 Z M 7.261719 -10.691406 "/></g></g></g><g fill="#000000" fill-opacity="1"><g transform="translate(159.491451, 247.019071)"><g><path d="M 10.882812 0 L 10.882812 -2.367188 L 4.363281 -2.367188 L 4.363281 -14.4375 L 1.71875 -14.4375 L 1.71875 0 Z M 10.882812 0 "/></g></g></g><g fill="#000000" fill-opacity="1"><g transform="translate(188.188264, 247.019071)"><g/></g></g><g fill="#000000" fill-opacity="1"><g transform="translate(210.877081, 247.019071)"><g/></g></g><g fill="#000000" fill-opacity="1"><g transform="translate(233.565899, 247.019071)"><g/></g></g><g fill="#000000" fill-opacity="1"><g transform="translate(256.26023, 247.019071)"><g><path d="M 8.621094 0 C 10.945312 0 13.238281 -1.335938 13.238281 -4.195312 C 13.238281 -5.816406 12.039062 -7.175781 10.585938 -7.644531 C 11.582031 -8.070312 12.410156 -9.257812 12.410156 -10.53125 C 12.410156 -12.941406 10.636719 -14.4375 8.015625 -14.4375 L 1.71875 -14.4375 L 1.71875 0 Z M 4.386719 -12.167969 L 7.898438 -12.167969 C 8.949219 -12.167969 9.746094 -11.359375 9.746094 -10.296875 C 9.746094 -9.226562 8.949219 -8.410156 7.886719 -8.410156 L 4.386719 -8.410156 Z M 4.386719 -6.421875 L 8.410156 -6.421875 C 9.617188 -6.421875 10.53125 -5.511719 10.53125 -4.394531 C 10.53125 -3.152344 9.617188 -2.28125 8.386719 -2.28125 L 4.386719 -2.28125 Z M 4.386719 -6.421875 "/></g></g></g><g fill="#000000" fill-opacity="1"><g transform="translate(287.563404, 247.019071)"><g><path d="M 10.882812 0 L 10.882812 -2.367188 L 4.363281 -2.367188 L 4.363281 -14.4375 L 1.71875 -14.4375 L 1.71875 0 Z M 10.882812 0 "/></g></g></g><g fill="#000000" fill-opacity="1"><g transform="translate(316.25681, 247.019071)"><g><path d="M 8.484375 0.308594 C 12.78125 0.308594 16.277344 -3.046875 16.277344 -7.242188 C 16.277344 -11.433594 12.78125 -14.777344 8.484375 -14.777344 C 4.183594 -14.777344 0.699219 -11.433594 0.699219 -7.242188 C 0.699219 -3.046875 4.183594 0.308594 8.484375 0.308594 Z M 8.484375 -2.125 C 5.648438 -2.125 3.34375 -4.300781 3.34375 -7.230469 C 3.34375 -10.171875 5.636719 -12.359375 8.484375 -12.359375 C 11.339844 -12.359375 13.644531 -10.179688 13.644531 -7.230469 C 13.644531 -4.300781 11.339844 -2.125 8.484375 -2.125 Z M 8.484375 -2.125 "/></g></g></g><g fill="#000000" fill-opacity="1"><g transform="translate(350.615323, 247.019071)"><g><path d="M 8.324219 0.308594 C 13.046875 0.308594 15.765625 -3.035156 15.734375 -7.773438 L 8.195312 -7.773438 L 8.195312 -5.5625 L 12.867188 -5.5625 C 12.464844 -3.546875 10.882812 -2.125 8.300781 -2.125 C 5.574219 -2.125 3.34375 -4.097656 3.34375 -7.230469 C 3.34375 -10.308594 5.574219 -12.359375 8.300781 -12.359375 C 10.351562 -12.359375 11.964844 -11.359375 12.71875 -9.671875 L 15.40625 -9.671875 C 14.726562 -12.921875 11.421875 -14.777344 8.367188 -14.777344 C 4.121094 -14.777344 0.710938 -11.433594 0.710938 -7.230469 C 0.710938 -3.058594 4.121094 0.308594 8.324219 0.308594 Z M 8.324219 0.308594 "/></g></g></g></svg>